<svg width="24" height="24" viewBox="0 0 24 24" fill="none" xmlns="http://www.w3.org/2000/svg">
<g id="uil:arrow">
<path id="Vector" d="M9.71 6.28994C9.61704 6.19621 9.50644 6.12182 9.38458 6.07105C9.26272 6.02028 9.13201 5.99414 9 5.99414C8.86799 5.99414 8.73728 6.02028 8.61542 6.07105C8.49356 6.12182 8.38296 6.19621 8.29 6.28994L3.29 11.2899C3.19627 11.3829 3.12188 11.4935 3.07111 11.6154C3.02034 11.7372 2.9942 11.8679 2.9942 11.9999C2.9942 12.132 3.02034 12.2627 3.07111 12.3845C3.12188 12.5064 3.19627 12.617 3.29 12.7099L8.29 17.7099C8.38296 17.8037 8.49356 17.8781 8.61542 17.9288C8.73728 17.9796 8.86799 18.0057 9 18.0057C9.13201 18.0057 9.26272 17.9796 9.38458 17.9288C9.50644 17.8781 9.61704 17.8037 9.71 17.7099C9.80373 17.617 9.87812 17.5064 9.92889 17.3845C9.97966 17.2627 10.0058 17.132 10.0058 16.9999C10.0058 16.8679 9.97966 16.7372 9.92889 16.6154C9.87812 16.4935 9.80373 16.3829 9.71 16.2899L5.41 11.9999L9.71 7.70994C9.80373 7.61698 9.87812 7.50638 9.92889 7.38452C9.97966 7.26266 10.0058 7.13195 10.0058 6.99994C10.0058 6.86793 9.97966 6.73722 9.92889 6.61536C9.87812 6.4935 9.80373 6.3829 9.71 6.28994ZM20.71 11.2899L15.71 6.28994C15.6168 6.1967 15.5061 6.12274 15.3842 6.07228C15.2624 6.02182 15.1319 5.99585 15 5.99585C14.7337 5.99585 14.4783 6.10164 14.29 6.28994C14.1968 6.38318 14.1228 6.49387 14.0723 6.61569C14.0219 6.73751 13.9959 6.86808 13.9959 6.99994C13.9959 7.26624 14.1017 7.52164 14.29 7.70994L18.59 11.9999L14.29 16.2899C14.1963 16.3829 14.1219 16.4935 14.0711 16.6154C14.0203 16.7372 13.9942 16.8679 13.9942 16.9999C13.9942 17.132 14.0203 17.2627 14.0711 17.3845C14.1219 17.5064 14.1963 17.617 14.29 17.7099C14.383 17.8037 14.4936 17.8781 14.6154 17.9288C14.7373 17.9796 14.868 18.0057 15 18.0057C15.132 18.0057 15.2627 17.9796 15.3846 17.9288C15.5064 17.8781 15.617 17.8037 15.71 17.7099L20.71 12.7099C20.8037 12.617 20.8781 12.5064 20.9289 12.3845C20.9797 12.2627 21.0058 12.132 21.0058 11.9999C21.0058 11.8679 20.9797 11.7372 20.9289 11.6154C20.8781 11.4935 20.8037 11.3829 20.71 11.2899Z" fill="black"/>
</g>
</svg>
